# xmcd
#
# Track frame offsets:
#	150
#	19726
#	37512
#	52995
#	65345
#	81016
#	95659
#	112559
#	129346
#	145278
#	160799
#	182633
#
# Disc length: 2697 seconds
#
# Revision: 0
# Processed by: cddbd v1.5.2PL0 Copyright (c) Steve Scherf et al.
# Submitted via: EZCDAudioConverter 7.0.8.1
#
DISCID=870a870c
DTITLE=Lawson Bates - Freedom Sure Ain't Free
DYEAR=2013
DGENRE=Country
TTITLE0=Freedom Sure Ain't Free
TTITLE1=Bucket at the Well
TTITLE2=Nail It to the Cross
TTITLE3=Where is God
TTITLE4=The Lighthouse
TTITLE5=He Took My Case
TTITLE6=I'm a Christian
TTITLE7=Old Time Way
TTITLE8=God on the Mountin
TTITLE9=Happiness is the Lord
TTITLE10=God's Got a Bigger Thing
TTITLE11=The End Down Here
EXTD=
EXTT0=
EXTT1=
EXTT2=
EXTT3=
EXTT4=
EXTT5=
EXTT6=
EXTT7=
EXTT8=
EXTT9=
EXTT10=
EXTT11=
PLAYORDER=
